# xmcd
# 
# Track frame offsets:
#     150
#     15399
#     30174
#     43814
#     57241
#     70114
#     88645
#     101717
#     124529
#     146279
#     160636
#     174976
#     187188
#     204800
#     224392
#     242442
#     260276
#     273809
#     291489
#     309434
#     325169
# 
# Disc length: 4586
# 
# Revision: 1
# Processed by: cddbd v1.5.2PL0 Copyright (c) Steve Scherf et al.
# Submitted via: fre:ac v1.0.31
# 
DISCID=1911e815
DTITLE=Dave Loggins - Apprentice (In A Musical Workshop) - Country Suite
DYEAR=0
DGENRE=Rock/Pop
TTITLE0=Someday
TTITLE1=My Lover's Keeper
TTITLE2=Second Hand Lady
TTITLE3=Let Me Go Now
TTITLE4=So You Couldn't Get To Me
TTITLE5=Please Come To Boston
TTITLE6=Girl From Knoxville
TTITLE7=Sunset Woman
TTITLE8=My Father's Fiddle
TTITLE9=Wonder'n As The Days Go By
TTITLE10=Movin' To The Country
TTITLE11=I'm Gonna Farm You Off My Mind
TTITLE12=Wild Millie The Mountain Girl
TTITLE13=The Weatherman
TTITLE14=Lovin' Somebody On A Rainy Night
TTITLE15=You've Got Me To Hold On To
TTITLE16=Come On Over To My Place
TTITLE17=Goodbye Miss Sadness
TTITLE18=Believin' In Love (Ain't That Easy)
TTITLE19=I Ain't Goin Nowhere
TTITLE20=Saviour Of My Natural Life
EXTD=
EXTT0=
EXTT1=
EXTT2=
EXTT3=
EXTT4=
EXTT5=
EXTT6=
EXTT7=
EXTT8=
EXTT9=
EXTT10=
EXTT11=
EXTT12=
EXTT13=
EXTT14=
EXTT15=
EXTT16=
EXTT17=
EXTT18=
EXTT19=
EXTT20=
PLAYORDER=
